<svg id="flat" height="512" viewBox="0 0 512 512" width="512" xmlns="http://www.w3.org/2000/svg"><path d="m264 262.62988a22.61584 22.61584 0 0 0 6.63 16l65.37 65.37012v152h112v-48h16a24.00619 24.00619 0 0 0 24-24v-80a47.99956 47.99956 0 0 0 -48-48h-78.06a24.01057 24.01057 0 0 1 -16.97-7.03l-42.34-42.34009a22.63 22.63 0 0 0 -38.63 16z" fill="#ffceb6"/><path d="m336 416h112v80h-112z" fill="#718799" transform="matrix(-1 0 0 -1 784 912)"/><path d="m304 312 32 32v72h112v-40h40v-32a47.99956 47.99956 0 0 0 -48-48h-78.06a24.01057 24.01057 0 0 1 -16.97-7.03l-8.97-8.97z" fill="#548aff"/><path d="m392 256a24 24 0 0 1 24 24v24a0 0 0 0 1 0 0h-48a0 0 0 0 1 0 0v-24a24 24 0 0 1 24-24z" fill="#ffceb6" transform="matrix(-1 0 0 -1 784 560)"/><path d="m416 256v-16l-19.359-12.906a18.42223 18.42223 0 0 0 -10.21879-3.094 18.42218 18.42218 0 0 0 -18.42221 18.42219v13.57781z" fill="#b1712c"/><path d="m448 352h16v24h-16z" fill="#4f7ff7"/><path d="m384 464h16v32h-16z" fill="#62798c"/><path d="m216 216h80v64h-80z" fill="#8098ab"/><path d="m216 280 16 32h48l16-32z" fill="#718799"/><path d="m248 262.62988a22.61584 22.61584 0 0 1 -6.63 16l-65.37 65.37012v152h-112v-48h-16a24.00619 24.00619 0 0 1 -24-24v-80a47.99956 47.99956 0 0 1 48-48h78.06a24.01057 24.01057 0 0 0 16.97-7.03l42.34-42.34009a22.63 22.63 0 0 1 38.63 16z" fill="#ffceb6"/><path d="m64 416h112v80h-112z" fill="#718799"/><path d="m208 312-32 32v72h-112v-40h-40v-32a47.99956 47.99956 0 0 1 48-48h78.06a24.01057 24.01057 0 0 0 16.97-7.03l8.97-8.97z" fill="#548aff"/><g fill="#ffc431"><path d="m328 136a71.8078 71.8078 0 0 1 -25.8 55.21l-6.2 24.79h-80l-6.2-24.79a71.99591 71.99591 0 1 1 118.2-55.21z"/><path d="m248 16h16v24h-16z"/><path d="m165.975 49.975h16v24h-16z" transform="matrix(.707 -.707 .707 .707 7.133 141.172)"/><path d="m128 136h24v16h-24z"/><path d="m161.975 218.024h24v16h-24z" transform="matrix(.707 -.707 .707 .707 -108.866 189.208)"/><path d="m330.024 214.024h16v24h-16z" transform="matrix(.707 -.707 .707 .707 -60.818 305.22)"/><path d="m360 136h24v16h-24z"/><path d="m326.024 53.975h24v16h-24z" transform="matrix(.707 -.707 .707 .707 55.173 257.159)"/></g><path d="m295.89 121.32007-15.78 94.67993h-16.22l12.94007-77.62012-16.03 12.02a8.00969 8.00969 0 0 1 -9.6 0l-16.03-12.02 12.93993 77.62012h-16.22l-15.78-94.67993a7.99628 7.99628 0 0 1 12.69-7.72l27.2 20.39993 27.2-20.3999a7.99632 7.99632 0 0 1 12.69006 7.72z" fill="#ffd873"/><path d="m96 256h48a0 0 0 0 1 0 0v24a24 24 0 0 1 -24 24 24 24 0 0 1 -24-24v-24a0 0 0 0 1 0 0z" fill="#ffceb6"/><path d="m96 256v-16l19.359-12.906a18.42223 18.42223 0 0 1 10.21879-3.094 18.42218 18.42218 0 0 1 18.42221 18.42219v13.57781z" fill="#b1712c"/><path d="m48 352h16v24h-16z" fill="#4f7ff7"/><path d="m112 464h16v32h-16z" fill="#62798c"/></svg>