<svg id="Capa_1" enable-background="new 0 0 512.005 512.005" height="512" viewBox="0 0 512.005 512.005" width="512" xmlns="http://www.w3.org/2000/svg"><g><g><path d="m216.597 0c-67.822 0-123 55.178-123 123 0 68.082 55.038 122.964 123.176 122.964 68.32 0 122.824-55.605 122.824-122.964 0-67.822-55.178-123-123-123z" fill="#fbbd43"/><path d="m339.598 123c0 67.291-54.455 122.96-122.83 122.96h-.17v-245.96c67.82 0 123 55.18 123 123z" fill="#f19637"/><path d="m237.68 213.603c-57.7 13.414-114.083-30.188-114.083-90.603 0-51.28 41.72-93 93-93s93 41.72 93 93c0 43.538-29.573 80.795-71.917 90.603z" fill="#fedd33"/><path d="m309.598 123c0 52.05-41.893 93.04-93 93.04v-186.04c51.28 0 93 41.72 93 93z" fill="#fbbd43"/></g><path d="m289.552 385.91-38.35 82.91c-.56 1.21-1.6 2.17-2.85 2.61l-109.35 39c-13.612 4.815-28.562-1.777-34.25-14.83-5.95-13.64-.06-29.3 13.39-35.65l63.94-30.17c2.34-1.11 4.14-3.05 5.07-5.47l29.447-77.1c1.28-.459 1.89-.524 3.17-.982z" fill="#1b95e0"/><path d="m289.549 385.91-1.06 2.29-37.29 80.62c-.56 1.21-1.6 2.17-2.85 2.61l-31.75 11.32v-135.54c1.28-.46 1.89-.52 3.17-.98z" fill="#167ecc"/><path d="m221.602 214.412v70.98l-69.47 12.38c-19.47 3.43-37.81-9.87-40.69-29.36-2.76-18.57 10.32-36.37 29.16-39.69z" fill="#1b95e0"/><path d="m389.949 512c-11.72 0-22.39-7.35-26.57-18.3-31.32-79.87-28.16-78.85-33.72-82.02-31.1-17.74-34.27-19.55-41.17-23.48-7.3-4.16-18.77-10.7-71.89-40.99l21.84-57.12c1.39-3.63-1.72-7.39-5.55-6.71l-16.29 2.9v-70.99l95.75-16.91 4.93-.87 49.31 37.71-2.91 6.77-30.97 71.97c-1.72 3.99-.68 8.6 2.59 11.47l64.8 56.81c.86.75 1.44 1.78 1.63 2.91l16.24 93.54c3.07 17.37-10.4 33.31-28.02 33.31z" fill="#167ecc"/><circle cx="362.806" cy="191" fill="#fdbbab" r="51"/><path d="m413.809 191c0 28.12-22.88 51-51 51v-102c28.12 0 51 22.88 51 51z" fill="#ffa58d"/></g></svg>